<?xml version="1.0" standalone="no"?>
<!DOCTYPE svg PUBLIC "-//W3C//DTD SVG 20010904//EN"
 "http://www.w3.org/TR/2001/REC-SVG-20010904/DTD/svg10.dtd">
<svg version="1.0" xmlns="http://www.w3.org/2000/svg"
 width="256.000000pt" height="256.000000pt" viewBox="0 0 256.000000 256.000000"
 preserveAspectRatio="xMidYMid meet">
<metadata>
Created by potrace 1.14, written by Peter Selinger 2001-2017
</metadata>
<g transform="translate(0.000000,256.000000) scale(0.100000,-0.100000)"
fill="#000000" stroke="none">
<path d="M10 1280 l0 -1275 1270 3 1270 2 0 1273 0 1272 -1270 1 -1270 0 0
-1276z m1187 1254 c-3 -3 -12 -4 -19 -1 -8 3 -5 6 6 6 11 1 17 -2 13 -5z m179
-9 c-5 -15 17 -18 142 -20 17 0 32 -4 32 -8 0 -5 4 -6 9 -2 5 3 16 -2 24 -10
9 -8 22 -15 29 -15 10 0 9 3 -2 11 -11 8 -5 9 25 4 22 -4 52 -18 66 -31 14
-13 28 -21 32 -17 4 3 19 1 35 -7 15 -7 38 -18 52 -24 13 -6 32 -18 41 -26 39
-36 59 -49 59 -39 0 7 -8 18 -17 25 -10 7 -16 15 -13 18 3 2 25 -13 49 -35 42
-39 67 -47 40 -12 -12 16 -11 15 8 -1 13 -10 20 -23 17 -27 -6 -11 8 -26 59
-59 20 -14 40 -33 43 -42 6 -19 20 -24 26 -9 2 5 12 3 23 -6 20 -15 19 -15 -3
-8 -22 6 -22 5 -10 -14 7 -12 16 -21 20 -21 5 0 16 -8 26 -17 10 -10 27 -23
37 -29 10 -6 21 -17 24 -25 4 -12 2 -12 -12 0 -10 7 -17 9 -17 4 0 -5 14 -17
31 -27 18 -11 27 -21 21 -25 -13 -8 -2 -26 16 -27 37 -3 39 -5 34 -29 -3 -18
0 -25 12 -25 11 0 16 -9 16 -28 0 -17 11 -37 30 -55 17 -16 30 -34 30 -40 0
-7 -4 -6 -10 3 -5 8 -10 12 -10 8 0 -4 11 -24 25 -44 14 -21 24 -43 21 -50 -3
-7 1 -17 8 -24 10 -7 11 -21 6 -46 -7 -31 -6 -36 16 -46 24 -11 34 -48 13 -48
-8 0 -8 -5 1 -15 7 -8 16 -12 21 -9 5 3 9 1 9 -5 0 -5 -5 -11 -11 -13 -9 -3
-9 -15 -2 -43 7 -25 11 -32 12 -18 1 16 6 21 16 17 13 -5 15 -36 13 -198 0
-105 -3 -176 -5 -158 -2 17 -8 32 -13 32 -12 0 -17 -79 -5 -84 5 -3 2 -10 -7
-16 -22 -14 -23 -30 -2 -30 14 0 14 -1 0 -16 -19 -19 -22 -58 -3 -48 6 3 0 -4
-14 -17 -22 -20 -28 -35 -32 -87 -4 -47 -10 -67 -24 -77 -11 -7 -20 -27 -21
-46 -2 -19 -9 -37 -16 -41 -8 -4 -16 -19 -20 -32 -3 -13 -15 -26 -26 -29 -16
-4 -20 -14 -21 -54 -1 -26 -5 13 -10 87 -7 130 -23 327 -35 439 -4 30 -9 124
-13 210 -5 129 -9 156 -21 156 -13 0 -15 -24 -14 -160 1 -88 9 -241 17 -340
17 -183 19 -239 18 -380 l-1 -80 -152 0 c-178 -1 -238 -13 -368 -77 -70 -34
-100 -57 -176 -134 -58 -59 -101 -95 -120 -99 -49 -11 -54 -14 -54 -30 0 -11
10 -15 38 -15 47 0 46 0 161 112 105 103 188 153 311 185 73 19 290 21 350 4
l35 -11 -38 5 c-36 4 -40 1 -69 -40 -17 -24 -46 -51 -65 -60 -18 -9 -31 -19
-29 -24 3 -4 2 -12 -2 -17 -11 -16 -117 -84 -131 -84 -7 0 -9 -5 -6 -11 4 -6
-2 -13 -14 -16 -12 -3 -21 -10 -21 -17 0 -6 -4 -5 -9 3 -7 11 -12 10 -29 -5
-32 -30 -46 -39 -59 -40 -7 -1 -22 -2 -33 -2 -11 -1 -20 -7 -20 -13 0 -5 5 -7
12 -3 7 4 8 3 4 -5 -4 -6 -11 -9 -16 -6 -17 10 -99 -16 -94 -30 4 -10 -1 -12
-15 -8 -12 3 -21 1 -21 -6 0 -6 -18 -11 -44 -11 -26 0 -51 -6 -60 -15 -17 -18
-53 -20 -58 -4 -3 9 -9 9 -25 0 -22 -11 -343 -12 -343 -1 0 3 -18 6 -41 7 -22
1 -47 7 -55 14 -8 6 -14 9 -14 5 0 -3 -12 -1 -26 4 -24 9 -79 20 -116 23 -9 1
-15 4 -12 8 2 3 -17 9 -42 12 -26 2 -50 11 -55 18 -5 8 -9 10 -9 4 -1 -5 -5 0
-11 13 -6 17 -14 22 -28 17 -20 -6 -55 20 -46 35 6 9 -29 20 -68 20 -18 0 -27
5 -25 12 5 14 -29 51 -40 44 -4 -2 -14 9 -21 25 -8 18 -20 29 -33 29 -17 0
-18 -3 -8 -15 7 -8 8 -15 3 -15 -5 0 -17 18 -27 40 -10 22 -21 40 -26 40 -13
0 -60 45 -60 57 0 6 -11 18 -25 27 -14 9 -23 21 -20 27 4 5 0 12 -9 15 -8 3
-12 12 -10 19 5 13 -29 39 -38 30 -3 -3 -5 3 -5 12 0 10 5 21 11 25 8 5 7 8
-1 8 -7 0 -15 -1 -16 -2 -10 -7 -36 27 -42 53 -4 17 -13 33 -21 36 -8 3 -14
14 -14 24 0 10 -4 19 -10 19 -5 0 -10 13 -10 29 0 16 -7 34 -15 41 -8 7 -15
18 -14 24 1 6 1 27 0 47 -1 28 -6 38 -22 42 -12 3 -18 10 -14 16 3 6 -1 25 -9
43 -9 20 -16 68 -18 123 -1 50 -6 95 -11 102 -5 7 -5 18 -1 24 4 8 3 9 -4 5
-8 -5 -12 3 -12 23 0 17 4 31 9 31 11 0 26 133 23 207 -2 49 18 110 31 96 4
-3 7 10 7 30 0 20 4 37 9 37 4 0 14 27 20 59 6 33 18 64 25 70 17 15 26 57 14
70 -4 6 -5 9 -1 6 9 -7 44 26 37 36 -3 5 1 9 9 9 8 0 22 9 32 20 20 22 8 28
-14 8 -8 -7 -6 -1 4 14 9 15 25 30 36 33 13 4 19 16 19 36 0 17 4 28 9 25 5
-3 15 7 22 23 8 15 18 28 22 28 23 2 56 43 52 66 -4 18 1 27 21 36 14 6 30 9
35 5 5 -3 12 1 15 9 3 9 16 18 29 21 16 4 22 11 19 21 -4 9 0 15 9 15 9 0 37
11 63 25 26 14 40 25 30 25 -9 0 -16 5 -16 11 0 5 4 7 10 4 5 -3 15 3 21 14 7
10 19 17 26 14 7 -3 30 6 51 20 20 14 54 28 75 31 26 5 37 12 37 24 0 15 2 15
10 2 6 -10 10 -11 10 -2 0 6 8 12 18 12 10 0 24 6 31 13 6 6 15 12 19 13 16 2
48 18 54 28 5 7 8 6 8 -3 0 -10 15 -12 73 -6 39 4 87 7 105 7 18 -1 47 7 65
18 42 26 183 30 173 5z m-346 -15 c0 -5 -5 -10 -11 -10 -5 0 -7 5 -4 10 3 6 8
10 11 10 2 0 4 -4 4 -10z m-990 -1430 c0 -5 -2 -10 -4 -10 -3 0 -8 5 -11 10
-3 6 -1 10 4 10 6 0 11 -4 11 -10z m2404 -311 c-3 -5 -10 -7 -15 -3 -5 3 -7
10 -3 15 3 5 10 7 15 3 5 -3 7 -10 3 -15z m-1311 -746 c-13 -2 -33 -2 -45 0
-13 2 -3 4 22 4 25 0 35 -2 23 -4z m244 1 c-3 -3 -12 -4 -19 -1 -8 3 -5 6 6 6
11 1 17 -2 13 -5z m71 -1 c-10 -2 -28 -2 -40 0 -13 2 -5 4 17 4 22 1 32 -1 23
-4z m80 0 c-10 -2 -26 -2 -35 0 -10 3 -2 5 17 5 19 0 27 -2 18 -5z"/>
<path d="M948 2473 c6 -2 18 -2 25 0 6 3 1 5 -13 5 -14 0 -19 -2 -12 -5z"/>
<path d="M1236 2391 c-7 -11 1 -236 10 -278 2 -13 12 -23 21 -23 14 0 15 15 9
143 -5 95 -12 146 -20 155 -10 10 -16 11 -20 3z"/>
<path d="M905 2309 c-8 -12 150 -249 166 -249 26 0 12 35 -58 140 -74 114 -94
133 -108 109z"/>
<path d="M1478 2195 c-83 -88 -105 -125 -75 -125 21 0 190 189 183 205 -3 8
-9 15 -13 14 -4 0 -47 -43 -95 -94z"/>
<path d="M396 2182 c-2 -4 -1 -14 3 -21 6 -9 10 -7 14 8 5 20 -7 29 -17 13z"/>
<path d="M1035 1941 c-142 -41 -233 -119 -266 -229 -6 -23 -13 -42 -14 -42 -1
0 -28 11 -61 24 -175 71 -385 68 -396 -6 -5 -38 10 -304 27 -463 18 -164 58
-417 78 -486 l13 -44 100 -26 c337 -88 522 -178 676 -331 65 -63 74 -69 107
-66 34 3 36 1 39 -29 l3 -33 -73 0 c-86 0 -131 18 -201 79 -146 126 -307 201
-586 275 -52 14 -99 30 -104 35 -17 17 -78 350 -117 641 -29 217 -29 220 -45
220 -8 0 -16 -4 -19 -8 -15 -24 109 -809 136 -860 17 -33 43 -44 203 -87 232
-63 361 -126 508 -249 89 -75 109 -82 234 -90 l93 -6 6 26 c4 14 4 40 1 59 -5
32 -4 33 38 44 41 10 115 70 115 93 0 23 131 101 251 148 157 62 235 80 351
80 86 0 88 1 94 26 9 35 -1 231 -20 394 -12 101 -15 182 -10 325 6 190 -5 342
-26 355 -15 9 -126 -7 -233 -34 -87 -22 -93 -22 -117 -6 -14 9 -37 25 -52 34
-15 9 -37 34 -48 56 -49 96 -138 157 -271 185 -101 21 -335 19 -414 -4z m423
-36 c118 -28 183 -74 228 -160 22 -41 40 -61 72 -77 41 -22 54 -38 31 -38 -19
0 -176 -77 -236 -116 -79 -52 -158 -117 -221 -183 l-52 -56 -23 30 c-76 103
-213 212 -383 302 -80 43 -85 47 -79 72 30 120 138 206 297 237 88 16 273 11
366 -11z m-850 -220 c29 -9 73 -25 97 -35 41 -18 45 -22 45 -54 0 -90 54 -285
109 -394 61 -119 119 -163 266 -201 179 -47 316 -46 400 4 57 33 82 69 110
161 13 42 31 84 40 94 10 11 48 31 85 45 36 14 78 38 93 53 55 57 72 153 41
227 -8 20 -14 38 -12 40 5 5 192 43 228 47 33 3 35 2 42 -37 3 -22 7 -166 8
-320 1 -166 7 -323 16 -385 7 -58 13 -144 14 -191 l0 -86 -102 -5 c-87 -4
-122 -11 -227 -47 -197 -68 -265 -104 -349 -189 -42 -43 -85 -77 -104 -83 -17
-5 -33 -8 -34 -6 -1 1 -8 136 -15 300 -11 260 -15 297 -28 294 -9 -1 -15 -11
-14 -21 0 -10 4 -143 8 -296 l8 -279 -27 -7 c-23 -5 -36 3 -99 62 -155 148
-360 249 -667 328 l-95 24 -17 84 c-49 234 -88 584 -88 785 0 88 1 93 23 97
12 3 31 7 42 10 33 8 147 -3 203 -19z m390 -194 c111 -73 184 -140 218 -197
43 -73 68 -68 164 33 99 104 256 207 400 263 52 20 55 21 67 4 25 -34 35 -91
23 -134 -16 -59 -53 -96 -122 -122 -92 -33 -114 -56 -144 -155 -30 -94 -68
-142 -133 -165 -55 -20 -202 -14 -311 12 -157 37 -212 77 -275 200 -37 73 -86
240 -92 313 l-6 69 59 -30 c32 -16 101 -58 152 -91z"/>
<path d="M1170 1890 c-183 -26 -282 -66 -315 -131 -22 -41 -13 -70 36 -123 74
-81 185 -110 424 -111 173 0 244 16 295 68 37 38 38 68 6 139 -29 66 -64 99
-139 133 -66 30 -193 41 -307 25z m303 -62 c63 -30 79 -46 20 -21 -57 24 -192
28 -313 9 -154 -23 -208 -41 -253 -87 -22 -21 -41 -39 -43 -39 -2 0 -4 12 -4
26 0 82 194 145 430 141 90 -2 113 -6 163 -29z"/>
<path d="M1685 1520 c-26 -50 -31 -117 -10 -140 22 -24 38 -25 76 -3 59 35 74
124 26 158 -36 25 -74 19 -92 -15z m66 -10 c27 -15 25 -61 -5 -90 -33 -30 -59
-21 -50 17 7 36 25 83 31 83 2 0 13 -5 24 -10z"/>
<path d="M80 1570 c0 -5 5 -10 11 -10 5 0 7 5 4 10 -3 6 -8 10 -11 10 -2 0 -4
-4 -4 -10z"/>
<path d="M71 1514 c0 -11 3 -14 6 -6 3 7 2 16 -1 19 -3 4 -6 -2 -5 -13z"/>
<path d="M2518 1438 c-3 -24 -2 -86 2 -138 l7 -95 1 138 c1 75 0 137 -2 137
-2 0 -6 -19 -8 -42z"/>
<path d="M1490 59 c0 -5 5 -7 10 -4 6 3 10 8 10 11 0 2 -4 4 -10 4 -5 0 -10
-5 -10 -11z"/>
</g>
</svg>
